<?xml version="1.0" encoding="UTF-8"?>
<svg xmlns="http://www.w3.org/2000/svg" version="1.1" viewBox="0 0 1080 1080">
  <!-- Generator: Adobe Illustrator 28.6.0, SVG Export Plug-In . SVG Version: 1.2.0 Build 709)  -->
  <g>
    <g id="Layer_1">
      <g>
        <path d="M498.26,623.98c0-3.87,0-7.75,0-11.62,0-140.49-.04-280.97.11-421.46,0-7.08.44-14.56,2.69-21.17,6.46-18.98,25.71-29.56,46.18-26.47,18.69,2.82,33.24,19.14,34.31,38.63.23,4.24.17,8.49.17,12.74,0,139.51,0,279.01,0,418.52v11.32c1.51,1.12,3.03,2.24,4.54,3.36,1.61-3.21,2.52-7.11,4.92-9.53,42.37-42.72,84.91-85.27,127.45-127.83,12.11-12.12,26.62-16.56,43.12-11.53,15.24,4.64,25.05,15.23,28.61,30.79,3.67,16.01-1.54,29.47-13.06,40.93-37.78,37.6-75.47,75.29-113.19,112.95-30.32,30.26-60.6,60.56-90.97,90.78-21.31,21.21-44.99,21.26-66.14.16-68.29-68.13-136.55-136.3-204.82-204.45-12.73-12.7-17.19-27.73-11.3-44.8,5.61-16.25,17.71-25.66,34.73-27.91,15.11-2,27.17,4.32,37.69,14.91,41.7,42,83.63,83.78,125.33,125.78,2.45,2.47,3.63,6.18,5.41,9.32,1.4-1.13,2.81-2.26,4.21-3.39Z"/>
        <path d="M539.63,937.24c-124.71,0-249.42.03-374.13-.03-26.42-.01-44.83-18.14-44.24-43.14.46-19.44,14.08-35.77,33.27-39.38,5.1-.96,10.4-1.21,15.6-1.21,246.47-.06,492.95-.07,739.42.06,7.11,0,14.55.53,21.25,2.65,19.2,6.06,30.13,24.76,27.57,45.43-2.34,18.88-19.07,34.27-38.73,35.51-3.59.23-7.2.11-10.8.11-123.07,0-246.15,0-369.22,0Z"/>
      </g>
    </g>
  </g>
</svg>